<?xml version="1.0" standalone="no"?>
<!DOCTYPE svg PUBLIC "-//W3C//DTD SVG 20010904//EN"
 "http://www.w3.org/TR/2001/REC-SVG-20010904/DTD/svg10.dtd">
<svg version="1.0" xmlns="http://www.w3.org/2000/svg"
 width="2000.000000pt" height="2000.000000pt" viewBox="0 0 2000.000000 2000.000000"
 preserveAspectRatio="xMidYMid meet">
<metadata>
Created by potrace 1.14, written by Peter Selinger 2001-2017
</metadata>
<g transform="translate(0.000000,2000.000000) scale(0.100000,-0.100000)"
fill="#000000" stroke="none">
<path d="M9290 15766 c-365 -329 -841 -886 -985 -1151 -56 -104 -112 -272
-132 -399 -19 -123 -21 -345 -4 -481 56 -444 267 -960 560 -1368 201 -280 403
-509 796 -903 461 -462 952 -915 1735 -1599 571 -499 854 -777 1154 -1130 500
-591 796 -1175 796 -1574 l0 -73 73 63 c193 170 478 471 626 663 144 186 288
446 351 636 116 348 137 786 56 1135 -71 304 -237 656 -483 1026 -155 233
-296 375 -1753 1764 -1142 1088 -1751 1699 -2059 2065 -246 293 -437 616 -531
897 -56 172 -72 258 -73 406 0 70 -3 127 -6 127 -4 0 -58 -47 -121 -104z"/>
<path d="M12317 15835 c-279 -53 -524 -248 -630 -500 -55 -131 -62 -170 -61
-340 0 -148 2 -167 28 -245 65 -198 185 -355 353 -463 82 -53 139 -79 241
-109 111 -33 322 -32 437 0 267 77 476 267 575 524 60 157 67 386 15 548 -110
346 -415 580 -780 595 -64 3 -128 -1 -178 -10z"/>
<path d="M6820 13264 c-300 -261 -609 -599 -890 -973 -174 -231 -248 -395
-289 -637 -90 -529 147 -1296 584 -1889 391 -530 1150 -1277 2495 -2454 536
-470 774 -699 1071 -1031 344 -385 631 -821 768 -1165 72 -179 126 -421 119
-532 -1 -23 0 -44 3 -47 7 -8 319 289 440 419 459 492 659 898 700 1422 34
426 -30 751 -230 1168 -84 175 -167 320 -287 500 -156 236 -333 414 -1684
1700 -1116 1062 -1862 1810 -2149 2155 -252 302 -451 654 -536 945 -39 135
-58 274 -51 383 3 50 4 92 3 92 -1 0 -31 -25 -67 -56z"/>
<path d="M7630 6073 c-202 -31 -393 -130 -516 -266 -91 -101 -157 -219 -200
-362 -29 -94 -27 -333 4 -438 91 -316 335 -542 657 -608 116 -24 203 -24 323
1 168 34 296 100 418 213 311 290 357 763 109 1112 -84 118 -227 232 -363 289
-121 51 -315 78 -432 59z"/>
</g>
</svg>
